<?xml version="1.0" encoding="utf-8" ?><svg xmlns="http://www.w3.org/2000/svg" xmlns:xlink="http://www.w3.org/1999/xlink" width="1024" height="1024" viewBox="0 0 1024 1024"><path fill="#1750FB" d="M455.979 121.748C486.865 120.977 518.132 121.847 549.057 121.501C562.67 121.349 578.199 120.974 591.507 123.051C624.289 128.073 653.684 146.042 673.098 172.93C684.146 188.418 691.302 206.339 693.962 225.176C695.24 234.6 695.012 244.503 695.008 254.019L695.001 288.675C695.129 333.913 694.982 379.152 694.562 424.388L694.522 517.694L694.549 544.445C694.55 549.79 695.069 557.592 693.941 562.815C689.22 588.555 651.345 589.988 642.912 567.158C640.317 560.133 641.821 529.839 641.819 521.022L641.498 396.564L641.609 355.105C641.642 343.945 643.403 327.523 636.834 318.356C632.837 312.663 626.671 308.868 619.787 307.864C608.78 306.255 598.816 310.889 593.405 320.735C592.546 322.298 590.61 325.397 590.549 327.132C589.198 365.331 590.461 403.696 589.934 441.944C583.397 450.545 570.277 463.3 562.531 471.401C555.038 479.235 546.261 488.97 538.603 496.363C539.708 461.799 538.529 426.381 538.607 391.754C538.66 368.339 508.453 357.811 493.415 377.997C491.482 380.889 490.262 384.198 489.855 387.653C489.259 392.593 489.493 401.705 489.501 406.899L489.535 438.823L489.474 555.302C482.68 563.475 470.597 576.952 462.915 584.435C456.021 584.236 449.962 582.284 444.772 577.619C434.236 568.149 436.392 552.087 436.422 539.325C436.442 528.105 436.396 516.886 436.286 505.666L436.208 389.889C436.249 370.824 436.37 351.761 436.341 332.697C436.318 318.026 424.63 306.281 409.78 307.436C400.358 308.187 392.247 314.38 389.04 323.271C386.461 330.385 387.468 358.513 387.444 367.99L387.443 497.738L387.457 535.495C387.45 548.366 389.345 564.049 380.265 574.184C369.623 586.062 352.936 586.52 341.496 575.516C335.315 569.57 333.062 562.884 332.945 554.459C333.029 531.854 332.998 509.273 333.008 486.68L333.231 338.289L333.296 271.007C333.264 236.456 330.837 210.622 351.001 179.79C375.346 142.568 411.747 122.853 455.979 121.748Z"/><path fill="#3EB8DB" d="M583.446 635.417C584.13 635.39 584.813 635.373 585.497 635.368L631.617 635.508C650.033 635.584 670.428 632.731 684.141 647.172C694.22 657.787 696.421 667.767 696.447 681.92L696.089 743.328C696.016 777.216 698.581 798.285 682.677 829.709C676.584 841.912 668.511 853.021 658.785 862.584C638.91 882.395 614.01 894.994 585.909 897.65C578.955 898.308 570.684 898.126 563.622 898.12L530.25 898.058C516.582 897.946 502.913 898.033 489.247 898.32C495.057 891.235 501.2 884.656 507.221 877.767L537.618 842.8L602.287 768.029L629.617 736.51C635.476 729.827 642.135 723.069 647.109 715.65C659.044 697.851 654.149 674.591 639.969 659.695C622.372 641.209 604.207 642.997 580.862 642.581L583.446 635.417Z"/><path fill="#1750FB" d="M762.678 361.148C768.77 360.85 773.313 361.849 778.416 365.126C791.87 373.766 792.235 385.666 791.923 400.345C791.768 407.658 791.953 415.686 791.96 423.126L791.973 500.138L791.96 631.011L791.839 674.838C791.792 682.779 791.714 690.636 791.482 698.569C791.066 712.773 782.068 722.175 768.019 724.521C759.938 724.708 755.889 724.114 748.758 719.53C744.973 717.097 738.555 708.941 738.109 704.527C736.481 688.409 737.101 670.36 737.09 654.016L737.093 559.729L737.316 444.573L737.309 406.583C737.311 395.82 735.402 380.946 742.222 372.321C747.764 365.312 754.017 362.428 762.678 361.148Z"/><path fill="#1750FB" d="M259.273 360.563C266.371 359.947 269.027 360.597 275.389 363.198C280.231 365.178 288.496 373.544 289.376 378.705C291.761 392.688 290.91 411.912 291.051 426.31C291.48 465.539 291.631 504.769 291.504 544L291.354 638.16C291.39 656.759 291.597 675.352 291.272 693.948C291.022 708.259 284.246 718.959 269.911 722.77C256.16 726.172 239.701 716.511 237.736 702.294C236.142 690.768 236.876 676.229 236.849 664.338L236.991 581.889L236.913 457.023C236.843 433.896 236.605 410.782 236.957 387.658C237.175 373.335 245.381 363.621 259.273 360.563Z"/><path fill="#3EB8DB" d="M369.767 635.257C384.581 634.876 404.38 634.769 419.096 635.118C416.545 639.503 412.03 645.206 408.907 649.399L392.335 671.598C383.89 682.881 377.362 691.416 377.37 706.138C377.372 717.504 381.992 728.38 390.17 736.273C406.752 752.564 429.092 749.067 450.432 749.012C446.996 759.02 440.69 772.986 436.587 782.977L413.922 839.163C409.956 849.053 400.787 872.546 396.082 881.029C390.788 878.487 380.457 871.238 375.914 867.416C350.889 846.387 335.309 816.228 332.641 783.65C332.064 776.661 332.326 767.607 332.343 760.482L332.433 722.592L332.427 691.51C332.422 683.526 332.05 675.364 333.379 667.475C336.499 648.963 351.27 636.522 369.767 635.257Z"/><path fill="#1750FB" d="M520.786 681.086C528.116 681.416 536.517 681.071 544.006 681.059L589.647 681.04C597.039 681.041 604.451 681.201 611.948 681.145C619.369 681.089 622.92 686.408 618.248 692.274C614.368 697.144 609.44 702.18 605.252 706.996C593.863 720.185 582.352 733.269 570.721 746.246L491.47 836.324C470.748 859.694 448.087 884.477 428.213 908.446C426.831 906.77 427.559 907.326 427.621 905.351L427.647 904.373C428.291 900.053 438.529 878.878 440.788 873.285L488.888 757.386C493.987 744.992 503.435 725.147 507.327 713.152C511.75 702.657 516.696 691.653 520.786 681.086Z"/><path fill="#3EB8DB" d="M507.327 713.152L506.427 712.984C502.357 712.196 491.207 712.543 486.47 712.564L440.226 712.828C434.143 712.867 417.407 714.158 412.937 710.886C411.019 707.722 411.037 704.086 413.349 701.17C417.628 695.772 422.449 690.715 426.934 685.478C437.518 672.943 448.178 660.472 458.912 648.065L543.505 549.053C563.671 525.736 586.461 500.421 605.405 476.364C601.62 486.481 597.461 495.766 593.356 505.7C585.097 525.899 576.646 546.019 568.004 566.057C555.975 594.33 545.184 623.391 532.856 651.589C528.719 661.053 524.251 671.384 520.786 681.086C516.696 691.653 511.75 702.657 507.327 713.152Z"/><path fill="#1750FB" d="M857.116 457.117C869.746 456.314 883.094 463.669 886.222 476.646C888.38 485.598 887.615 498.206 887.626 507.579L887.569 552.36L887.488 582.692C887.424 602.744 889.099 619.667 864.572 625.525C851.5 626.839 837.711 620.377 834.505 606.52C832.509 597.896 833.309 584.632 833.319 575.488L833.437 530.31L833.417 499.42C833.365 479.051 832.213 462.229 857.116 457.117Z"/><path fill="#1750FB" d="M164.262 457.092C183.153 455.601 195.148 468.434 195.272 486.695C195.615 520.042 194.941 553.451 195.277 586.8C195.468 605.703 194.082 619.548 172.962 625.627C159.665 627.357 145.54 620.197 142.505 606.288C140.66 597.836 141.376 586.276 141.372 577.374L141.313 540.153L141.24 503.518C141.194 483.097 138.108 462.251 164.262 457.092Z"/><path fill="#747EF0" fill-opacity="0.98823529" d="M424.015 913.202C425.152 909.976 425.876 907.372 427.647 904.373L427.621 905.351C427.559 907.326 426.831 906.77 428.213 908.446C426.993 909.947 425.379 911.566 424.015 913.202Z"/></svg>